<svg width="338" height="49" viewBox="0 0 338 49" fill="none" xmlns="http://www.w3.org/2000/svg">
<path d="M0.864 48V1.28H8.864V20.352H14.368L23.264 1.28H31.904L21.408 23.552L32.416 48H23.52L14.304 27.328H8.864V48H0.864ZM53.575 48.64C49.095 48.64 45.5323 47.36 42.887 44.8C40.2843 42.24 38.983 38.6987 38.983 34.176V15.104C38.983 10.5387 40.2843 6.99733 42.887 4.48C45.5323 1.92 49.095 0.639999 53.575 0.639999C58.055 0.639999 61.5963 1.92 64.199 4.48C66.8443 6.99733 68.167 10.5173 68.167 15.04V34.176C68.167 38.6987 66.8443 42.24 64.199 44.8C61.5963 47.36 58.055 48.64 53.575 48.64ZM53.575 41.6C55.751 41.6 57.3937 41.024 58.503 39.872C59.6123 38.6773 60.167 36.992 60.167 34.816V14.464C60.167 12.2453 59.6123 10.56 58.503 9.408C57.3937 8.256 55.751 7.68 53.575 7.68C51.399 7.68 49.7563 8.256 48.647 9.408C47.5377 10.56 46.983 12.2453 46.983 14.464V34.816C46.983 36.992 47.5377 38.6773 48.647 39.872C49.799 41.024 51.4417 41.6 53.575 41.6ZM92.462 48.64C89.4753 48.64 86.8513 48.0853 84.59 46.976C82.3713 45.824 80.6433 44.224 79.406 42.176C78.2113 40.0853 77.614 37.632 77.614 34.816V14.464C77.614 11.6053 78.2113 9.152 79.406 7.104C80.6433 5.056 82.3713 3.47733 84.59 2.368C86.8513 1.216 89.4753 0.639999 92.462 0.639999C95.4913 0.639999 98.094 1.216 100.27 2.368C102.489 3.47733 104.217 5.07733 105.454 7.168C106.691 9.216 107.31 11.648 107.31 14.464H99.246C99.246 12.2453 98.6487 10.56 97.454 9.408C96.302 8.256 94.638 7.68 92.462 7.68C90.286 7.68 88.6007 8.256 87.406 9.408C86.2113 10.56 85.614 12.2453 85.614 14.464V34.816C85.614 36.992 86.2113 38.6773 87.406 39.872C88.6007 41.024 90.286 41.6 92.462 41.6C94.638 41.6 96.302 41.024 97.454 39.872C98.6487 38.6773 99.246 36.992 99.246 34.816H107.31C107.31 37.5893 106.691 40.0213 105.454 42.112C104.217 44.2027 102.489 45.824 100.27 46.976C98.094 48.0853 95.4913 48.64 92.462 48.64ZM116.053 48V1.28H124.053V20.224H136.597V1.28H144.597V48H136.597V27.456H124.053V48H116.053ZM154.364 48V1.28H162.364V20.352H167.868L176.764 1.28H185.404L174.908 23.552L185.916 48H177.02L167.804 27.328H162.364V48H154.364ZM190.115 48L201.891 1.28H212.195L224.035 48H215.843L213.283 36.672H200.867L198.307 48H190.115ZM202.339 30.144H211.811L208.995 17.6C208.526 15.5093 208.12 13.632 207.779 11.968C207.438 10.2613 207.203 9.024 207.075 8.256C206.947 9.024 206.712 10.2613 206.371 11.968C206.072 13.632 205.667 15.488 205.155 17.536L202.339 30.144ZM245.706 48.64C242.719 48.64 240.095 48.0853 237.834 46.976C235.615 45.824 233.887 44.224 232.65 42.176C231.455 40.0853 230.858 37.632 230.858 34.816V14.464C230.858 11.6053 231.455 9.152 232.65 7.104C233.887 5.056 235.615 3.47733 237.834 2.368C240.095 1.216 242.719 0.639999 245.706 0.639999C248.735 0.639999 251.338 1.216 253.514 2.368C255.733 3.47733 257.461 5.056 258.698 7.104C259.935 9.152 260.554 11.6053 260.554 14.464H252.49C252.49 12.2453 251.893 10.56 250.698 9.408C249.546 8.256 247.882 7.68 245.706 7.68C243.53 7.68 241.845 8.256 240.65 9.408C239.455 10.56 238.858 12.224 238.858 14.4V34.816C238.858 36.992 239.455 38.6773 240.65 39.872C241.845 41.0667 243.53 41.664 245.706 41.664C247.882 41.664 249.546 41.0667 250.698 39.872C251.893 38.6773 252.49 36.992 252.49 34.816V29.632H244.554V22.72H260.554V34.816C260.554 37.632 259.935 40.0853 258.698 42.176C257.461 44.224 255.733 45.824 253.514 46.976C251.338 48.0853 248.735 48.64 245.706 48.64ZM279.793 48V31.04L266.097 1.28H274.545L281.777 17.472C282.332 18.752 282.801 20.0107 283.185 21.248C283.569 22.4853 283.825 23.4453 283.953 24.128C284.124 23.4453 284.38 22.4853 284.721 21.248C285.105 20.0107 285.574 18.752 286.129 17.472L293.233 1.28H301.553L287.857 31.04V48H279.793ZM306.456 48V1.28H316.888L322.136 21.376L327.448 1.28H337.944V48H330.456V28.352C330.456 25.664 330.52 22.8907 330.648 20.032C330.819 17.1307 331.011 14.336 331.224 11.648C331.437 8.91733 331.672 6.44267 331.928 4.224L325.336 27.712H318.744L312.408 4.8C312.664 6.76267 312.899 8.98133 313.112 11.456C313.368 13.9307 313.56 16.5973 313.688 19.456C313.859 22.3147 313.944 25.28 313.944 28.352V48H306.456Z" fill="url(#paint0_linear_1_9)"/>
<defs>
<linearGradient id="paint0_linear_1_9" x1="-4" y1="25" x2="342" y2="25" gradientUnits="userSpaceOnUse">
<stop stop-color="#6473FF"/>
<stop offset="1" stop-color="#69DE98"/>
</linearGradient>
</defs>
</svg>
