<svg width="74" height="25" viewBox="0 0 74 25" fill="none" xmlns="http://www.w3.org/2000/svg">
<path d="M0.112 24V0.639999H8.08C9.72267 0.639999 11.152 0.949333 12.368 1.568C13.6053 2.18667 14.5547 3.05067 15.216 4.16C15.8987 5.26933 16.24 6.57067 16.24 8.064C16.24 9.536 15.8987 10.8373 15.216 11.968C14.5333 13.0773 13.584 13.9413 12.368 14.56C11.152 15.1787 9.72267 15.488 8.08 15.488H4.912V24H0.112ZM4.912 11.328H8.08C9.104 11.328 9.91467 11.0187 10.512 10.4C11.1307 9.78133 11.44 9.00267 11.44 8.064C11.44 7.12533 11.1307 6.34667 10.512 5.728C9.91467 5.10933 9.104 4.8 8.08 4.8H4.912V11.328ZM20.8675 24V0.639999H25.6675V19.68H35.1075V24H20.8675ZM45.975 24.32C43.607 24.32 41.7297 23.68 40.343 22.4C38.9777 21.12 38.295 19.3707 38.295 17.152V0.639999H43.095V17.12C43.095 18.1013 43.3403 18.8587 43.831 19.392C44.343 19.904 45.0577 20.16 45.975 20.16C46.871 20.16 47.575 19.904 48.087 19.392C48.599 18.8587 48.855 18.1013 48.855 17.12V0.639999H53.655V17.152C53.655 19.3493 52.9617 21.0987 51.575 22.4C50.2097 23.68 48.343 24.32 45.975 24.32ZM65.2265 24.32C63.5838 24.32 62.1438 24.032 60.9065 23.456C59.6905 22.88 58.7412 22.0693 58.0585 21.024C57.3972 19.9573 57.0665 18.7093 57.0665 17.28H61.7385C61.7385 18.1547 62.0478 18.8587 62.6665 19.392C63.3065 19.904 64.1598 20.16 65.2265 20.16C66.2718 20.16 67.0825 19.9147 67.6585 19.424C68.2558 18.912 68.5545 18.24 68.5545 17.408C68.5545 16.7467 68.3625 16.16 67.9785 15.648C67.5945 15.1147 67.0292 14.7627 66.2825 14.592L63.4345 13.92C61.5998 13.4933 60.1385 12.672 59.0505 11.456C57.9838 10.2187 57.4505 8.74667 57.4505 7.04C57.4505 5.65333 57.7492 4.45867 58.3465 3.456C58.9652 2.45333 59.8398 1.68533 60.9705 1.152C62.1225 0.597333 63.4772 0.32 65.0345 0.32C66.6132 0.32 67.9678 0.597333 69.0985 1.152C70.2505 1.68533 71.1358 2.45333 71.7545 3.456C72.3945 4.45867 72.7145 5.64267 72.7145 7.008H68.0425C68.0425 6.19733 67.7758 5.568 67.2425 5.12C66.7092 4.65067 65.9732 4.416 65.0345 4.416C64.1172 4.416 63.4025 4.64 62.8905 5.088C62.3785 5.536 62.1225 6.13333 62.1225 6.88C62.1225 7.49867 62.3145 8 62.6985 8.384C63.0825 8.768 63.6265 9.04533 64.3305 9.216L67.2745 9.888C69.1092 10.2933 70.5598 11.1787 71.6265 12.544C72.7145 13.888 73.2585 15.5093 73.2585 17.408C73.2585 18.7947 72.9278 20.0107 72.2665 21.056C71.6265 22.1013 70.6985 22.912 69.4825 23.488C68.2878 24.0427 66.8692 24.32 65.2265 24.32Z" fill="url(#paint0_linear_19_113)"/>
<defs>
<linearGradient id="paint0_linear_19_113" x1="-2" y1="12" x2="75" y2="12" gradientUnits="userSpaceOnUse">
<stop stop-color="#6473FF"/>
<stop offset="1" stop-color="#69DE98"/>
</linearGradient>
</defs>
</svg>
